<?xml version="1.0" encoding="utf-8"?><svg width="463" height="181" viewBox="0 0 463 181" xmlns="http://www.w3.org/2000/svg" xmlns:xlink="http://www.w3.org/1999/xlink"><svg width="60" height="37" viewBox="0 0 60 37" id="360turn" x="100" y="81" xmlns="http://www.w3.org/2000/svg"><g fill="#FFF" fill-rule="evenodd" opacity=".795"><text font-family="GothamPro-Medium, Gotham Pro" font-size="16" font-weight="400"><tspan x="10" y="36">360°</tspan></text><path fill-rule="nonzero" d="M38.583.336C51.286 1.348 59.994 4.463 60 8c-.04 2.694-5.13 5.204-13.558 6.689-.93.138-1.96.222-3.02.245h10.579V16H38.003v-4.267h4v2.41C50.616 12.95 56.071 10.59 56.2 8c-.098-3.848-11.769-6.96-26.196-6.987C15.577 1.039 3.905 4.153 3.807 8c.134 3.071 7.731 5.763 18.758 6.646l-1.14 1.024C5.551 14.406-3.477 9.95 1.261 5.715 5.999 1.48 22.708-.927 38.583.336z"/></g></svg><svg width="34" height="14" viewBox="0 0 34 14" id="car" x="260" y="33" xmlns="http://www.w3.org/2000/svg"><g fill="#EB373B"><path d="M30.908 11.935A2.957 2.957 0 0 1 28.086 14a2.955 2.955 0 0 1-2.874-2.268 2.977 2.977 0 0 1-.082-.68 2.952 2.952 0 0 1 2.957-2.947 2.952 2.952 0 0 1 2.956 2.948c0 .136-.012.27-.03.4a3.05 3.05 0 0 1-.042.241c-.02.08-.039.162-.063.24zm-20.625-.266A2.955 2.955 0 0 1 7.392 14a2.952 2.952 0 0 1-2.956-2.92l-.001-.027c0-.072.006-.142.01-.212a2.95 2.95 0 0 1 2.946-2.736 2.952 2.952 0 0 1 2.957 2.948c0 .048-.005.094-.007.141a2.901 2.901 0 0 1-.058.475z"/><path d="M1.76 1.503c.395.037.729.235.942.51a1.137 1.137 0 0 1 .24.789l-.138 1.466a1.71 1.71 0 0 1 .209-.175c0-2.046.717-3.41.717-3.41L3.826.51A1 1 0 0 1 4.7 0h7.337c3.862 0 8.34.853 8.887 1.433.547.58 3.212 3.138 3.212 3.138l7.827 1.091S33.09 7.3 33.33 7.743c.24.443.41.478.41.478.957 2.33-.977 3.203-1.693 3.44a3.931 3.931 0 1 0-7.843-.37c0 .17.014.336.035.498a525.63 525.63 0 0 1-12.964-.314c.002-.061.009-.121.009-.183a3.932 3.932 0 0 0-7.843-.364c-1.412-.45-1.548-2.105-1.396-3.561a1.321 1.321 0 0 1-.572.2c-.093.01-.188.013-.285.004C.473 7.504-.057 6.922.005 6.272l.35-3.713c.063-.65.692-1.123 1.405-1.056z"/></g></svg><svg width="20" height="20" viewBox="0 0 20 20" id="checkbox" x="184" y="81" xmlns="http://www.w3.org/2000/svg"><rect width="18.5" height="18.5" x=".75" y=".75" fill="none" stroke="#D2D2D2" stroke-width="1.5" rx="4"/></svg><svg width="20" height="20" viewBox="0 0 20 20" id="checkbox-active" x="204" y="81" xmlns="http://www.w3.org/2000/svg"><defs><rect id="da" width="20" height="20" rx="4"/></defs><g fill="none" fill-rule="evenodd"><use fill="#EB373B" xlink:href="#da"/><rect width="18.5" height="18.5" x=".75" y=".75" stroke="#EB373B" stroke-width="1.5" rx="4"/><path fill="#FFF" fill-rule="nonzero" d="M6.104 10.85A.38.38 0 0 1 6 10.605a.38.38 0 0 1 .104-.245l.484-.49a.332.332 0 0 1 .485 0l.035.035 1.904 2.065c.069.07.173.07.242 0l4.638-4.865h.035a.332.332 0 0 1 .485 0l.484.49a.34.34 0 0 1 0 .49l-5.538 5.81a.313.313 0 0 1-.243.105.313.313 0 0 1-.242-.105l-2.7-2.94-.07-.105z"/></g></svg><svg width="24" height="16" viewBox="0 0 24 16" id="filter" x="288" y="57" xmlns="http://www.w3.org/2000/svg"><path fill="#EB373B" d="M9.333 16h5.334v-2.667H9.333V16zM0 0v2.667h24V0H0zm4 9.333h16V6.667H4v2.666z"/></svg><svg width="260" height="24" viewBox="0 0 260 24" id="logo-footer" y="57" xmlns="http://www.w3.org/2000/svg"><g fill="none" fill-rule="evenodd"><path fill="#FFF" d="M-381-28h1920v80H-381z" opacity=".95"/><path fill="#000" d="M40.22 9l8.365 2.587S40.162 19.844 39 21h9.237c6.912 0 7.9-.88 12.605-5.725 0 0 1.627-1.651 1.627-1.596 0 0 3.543-3.633 4.531-4.624C65.2 9 40.22 9 40.22 9"/><path fill="#000" d="M70.073 5c-.223.267-3.125 3.8-4.073 5h8.927c.223-.267 3.125-3.8 4.073-5h-8.927M13 5H4.073C3.85 5.267.948 8.8 0 10h8.927C9.15 9.667 12.052 6.133 13 5m4.263 7L6 24h26.9l4.1-4.344H24.425zm14.155 0L43 0H17.18L13 4.344h10.96zm95.798 0L121 19h15.784L143 12h-.486zm-25.941-5H83.398L81 10h23zm142.585 5.056c0 .283-.057.565-.346.847l-1.446 1.75c-.984 1.13-3.876 2.032-6.48 1.92-2.544-.113-3.817-1.073-2.892-2.202l1.447-1.75c.173-.17.347-.339.578-.508h-16.428c-.116.113-.232.17-.29.282l-.231.226-.058.056-.231.226-.058.057c-.058.056-.116.169-.231.225l-.058.057c-.058.056-.116.17-.174.226l-.058.056c-.058.057-.115.17-.173.226 0 0 0 .056-.058.056-.058.057-.116.17-.174.226 0 0 0 .057-.057.057a.426.426 0 0 0-.116.282v.056c-.058.113-.058.17-.116.283-.289.677-.289 1.355.058 1.975v.057c.058.113.174.226.231.282C218.177 18.831 229.69 19 234.837 19c5.148 0 17.643-.621 20.593-2.258 2.372-1.298 4.339-2.992 4.57-4.742l-16.14.056zm15.084-2.12c0-.064-.057-.064-.057-.127l-.056-.128C257.645 7.383 251.832 7 240.036 7 229.2 7 222.426 8.149 220 10h39c-.056 0-.056-.064-.056-.064M79.586 12L73 19h16.724l4.983-5.25L99.69 19h-.058 16.724L123 12zm78.564 0l-5.883 6.718L152 19h15.615L172 14.089 164.246 12zm31 0L183 19h15.615L203 14.089 195.246 12zm-66.638-2L125 7h-16.512L106 10zm25.036-3h-16.06L129 10h16.512L148 7h-.057zm69.967 3L220 7h-68.515L149 10h68.458z"/></g></svg><svg width="260" height="24" viewBox="0 0 260 24" id="logo-head" y="33" xmlns="http://www.w3.org/2000/svg"><g fill="none" fill-rule="evenodd"><path fill="#FFF" d="M-381-28h1920v80H-381z" opacity=".95"/><path fill="#EB2D2E" d="M40.22 9l8.365 2.587S40.162 19.844 39 21h9.237c6.912 0 7.9-.88 12.605-5.725 0 0 1.627-1.651 1.627-1.596 0 0 3.543-3.633 4.531-4.624C65.2 9 40.22 9 40.22 9"/><path fill="#000" d="M70.073 5c-.223.267-3.125 3.8-4.073 5h8.927c.223-.267 3.125-3.8 4.073-5h-8.927M13 5H4.073C3.85 5.267.948 8.8 0 10h8.927C9.15 9.667 12.052 6.133 13 5m4.263 7L6 24h26.9l4.1-4.344H24.425zm14.155 0L43 0H17.18L13 4.344h10.96zm95.798 0L121 19h15.784L143 12h-.486zm-25.941-5H83.398L81 10h23zm142.585 5.056c0 .283-.057.565-.346.847l-1.446 1.75c-.984 1.13-3.876 2.032-6.48 1.92-2.544-.113-3.817-1.073-2.892-2.202l1.447-1.75c.173-.17.347-.339.578-.508h-16.428c-.116.113-.232.17-.29.282l-.231.226-.058.056-.231.226-.058.057c-.058.056-.116.169-.231.225l-.058.057c-.058.056-.116.17-.174.226l-.058.056c-.058.057-.115.17-.173.226 0 0 0 .056-.058.056-.058.057-.116.17-.174.226 0 0 0 .057-.057.057a.426.426 0 0 0-.116.282v.056c-.058.113-.058.17-.116.283-.289.677-.289 1.355.058 1.975v.057c.058.113.174.226.231.282C218.177 18.831 229.69 19 234.837 19c5.148 0 17.643-.621 20.593-2.258 2.372-1.298 4.339-2.992 4.57-4.742l-16.14.056zm15.084-2.12c0-.064-.057-.064-.057-.127l-.056-.128C257.645 7.383 251.832 7 240.036 7 229.2 7 222.426 8.149 220 10h39c-.056 0-.056-.064-.056-.064M79.586 12L73 19h16.724l4.983-5.25L99.69 19h-.058 16.724L123 12zm78.564 0l-5.883 6.718L152 19h15.615L172 14.089 164.246 12zm31 0L183 19h15.615L203 14.089 195.246 12zm-66.638-2L125 7h-16.512L106 10zm25.036-3h-16.06L129 10h16.512L148 7h-.057zm69.967 3L220 7h-68.515L149 10h68.458z"/></g></svg><svg width="7" height="3" viewBox="0 0 7 3" id="minus" x="294" y="33" xmlns="http://www.w3.org/2000/svg"><path fill="#404041" d="M7 1.5a.613.613 0 0 1-.613.613H.612A.61.61 0 0 1 0 1.5C0 1.162.274.888.613.888h5.775c.338 0 .612.274.612.612z"/></svg><svg width="12" height="16" viewBox="0 0 12 16" id="pin" x="387" y="57" xmlns="http://www.w3.org/2000/svg"><path fill="#EB373B" d="M6 0C2.692 0 0 2.643 0 5.89c0 .848.177 1.657.525 2.405 1.5 3.223 4.376 6.625 5.222 7.591a.337.337 0 0 0 .506 0c.846-.966 3.722-4.368 5.222-7.59A5.655 5.655 0 0 0 12 5.89C12 2.643 9.308 0 6 0zm0 8.95c-1.719 0-3.117-1.372-3.117-3.06 0-1.687 1.398-3.06 3.117-3.06 1.718 0 3.116 1.373 3.116 3.06 0 1.688-1.398 3.06-3.116 3.06z"/></svg><svg width="7" height="7" viewBox="0 0 7 7" id="plus" x="294" y="36" xmlns="http://www.w3.org/2000/svg"><path fill="#404041" d="M7 3.5a.613.613 0 0 1-.613.613H4.112v2.274a.612.612 0 1 1-1.225 0V4.114H.612A.61.61 0 0 1 0 3.5c0-.338.274-.612.613-.612h2.274V.613a.613.613 0 0 1 1.226 0v2.275h2.275c.338 0 .612.274.612.612z"/></svg><svg id="redsoft" viewBox="0 0 100 100" width="100" height="100" y="81" xmlns="http://www.w3.org/2000/svg"><style id="kstyle4485">.kst0{fill:#ec2426}</style><g id="kg4495"><path class="kst0" d="M48.1 14.6c-.4-.6-.9-1-1.5-1.4-.6-.4-1.5-.5-2.4-.5H43c-.4 0-.7 0-.9.1V25H43.9c1 0 1.8-.2 2.5-.5.7-.4 1.2-.8 1.6-1.4.4-.6.7-1.3.8-2 .2-.8.2-1.6.2-2.4 0-.7-.1-1.4-.2-2.1 0-.7-.3-1.4-.7-2z" id="kpath4487" fill="#7f7f7f"/><path class="kst0" d="M16.9 17.4c.6-.4.9-1.2.9-2.2 0-.8-.2-1.4-.7-1.8-.5-.4-1.2-.7-2.1-.7h-1.1c-.4 0-.6.1-.8.1v5.3h1.5c.9 0 1.7-.2 2.3-.7z" id="kpath4489" fill="#7f7f7f"/><path class="kst0" d="M0 0v100h100V0H0zm25.1 9.8h10.8V13h-7.2v4.2h6.6v3.2h-6.6v4.4H36V28H25.1V9.8zM9.5 10c.4-.1.8-.1 1.3-.2s.9-.1 1.4-.1c.5 0 .9-.1 1.3-.1h1.2c.8 0 1.7.1 2.5.2.8.2 1.6.4 2.2.8.6.4 1.2.9 1.6 1.6.4.7.6 1.5.6 2.5 0 1.5-.3 2.7-1 3.6-.7.9-1.6 1.6-2.8 1.9l1.2.8 4.1 6.9H19l-4.1-7.1-1.9-.3v7.4H9.5V10zm10.9 37.4c-.3.7-.8 1.3-1.3 1.7-.6.5-1.3.8-2.1 1-.8.2-1.7.3-2.7.3-1.3 0-2.4-.1-3.4-.4s-1.7-.5-2.2-.7l1.1-3c.2.1.4.2.7.3.3.1.6.2 1 .3l1.2.3c.4.1.9.1 1.3.1 1.1 0 1.9-.2 2.4-.5.6-.4.8-.9.8-1.6 0-.6-.2-1-.6-1.3-.4-.3-.9-.7-1.5-.9-.6-.3-1.3-.6-2-.9-.7-.3-1.4-.7-2-1.1-.6-.4-1.1-1-1.5-1.6-.4-.7-.6-1.5-.6-2.6 0-.9.1-1.6.4-2.3.3-.6.7-1.2 1.3-1.6.5-.4 1.2-.8 1.9-1 .7-.2 1.6-.3 2.5-.3 1.1 0 2 .1 3 .3s1.7.4 2.3.8l-1.1 3c-.4-.2-1-.5-1.7-.7-.8-.2-1.6-.3-2.5-.3-.8 0-1.5.2-1.9.5-.4.3-.7.8-.7 1.3s.2 1 .6 1.3c.4.3.9.7 1.5 1 .6.3 1.3.6 2 .9.7.3 1.4.7 2 1.1.6.4 1.1 1 1.5 1.6.4.6.6 1.5.6 2.4.2 1.1 0 1.9-.3 2.6zm15.6.7c-1.3 1.6-3.2 2.4-5.7 2.4-1.3 0-2.5-.2-3.4-.7-1-.4-1.8-1.1-2.4-1.9-.6-.8-1.1-1.8-1.4-3-.3-1.2-.5-2.4-.5-3.9 0-3 .7-5.4 2-7 1.3-1.6 3.2-2.4 5.7-2.4 1.3 0 2.4.2 3.4.7 1 .4 1.8 1.1 2.4 1.9.6.8 1.1 1.8 1.4 3 .3 1.2.5 2.4.5 3.9 0 3-.6 5.3-2 7zm15.3-12.9h-7.2v4.5h6.6v3.2h-6.6v7.3h-3.6V32h10.8v3.2zm-.5-9.9c-.7.9-1.7 1.6-2.9 2.1s-2.6.8-4.4.8h-1.1c-.5 0-.9 0-1.4-.1-.5 0-1-.1-1.4-.1-.4 0-.8-.1-1-.1V9.8c.4-.1.8-.1 1.2-.1.5 0 .9-.1 1.4-.1H43.8c1.6 0 3 .2 4.1.7 1.1.4 2.1 1.1 2.8 1.9.7.8 1.2 1.8 1.6 2.9.3 1.1.5 2.4.5 3.7 0 1.2-.2 2.4-.5 3.6-.2 1-.8 2-1.5 2.9zm15.8 9.9h-5.3v15h-3.6v-15h-5.3V32h14.2v3.2z" id="kpath4491" fill="#7f7f7f"/><path class="kst0" d="M33.4 36.6c-.3-.6-.7-1-1.2-1.3-.5-.3-1.1-.5-1.8-.5-1.3 0-2.2.5-2.9 1.5-.7 1-1 2.6-1 4.8 0 .9.1 1.8.2 2.5.2.8.4 1.4.7 2 .3.6.7 1 1.2 1.3s1.1.5 1.8.5c1.3 0 2.2-.5 2.9-1.5.7-1 1-2.6 1-4.8 0-.9-.1-1.7-.2-2.5-.2-.7-.4-1.4-.7-2z" id="kpath4493" fill="#7f7f7f"/></g></svg><svg width="17" height="16" viewBox="0 0 17 16" id="shape-copy-3" x="312" y="57" xmlns="http://www.w3.org/2000/svg"><path fill="#EB373B" d="M16.26 5.455l-4.681-.439a.809.809 0 0 1-.67-.491L9.23.498c-.268-.664-1.22-.664-1.489 0L6.08 4.525a.792.792 0 0 1-.671.491l-4.682.439A.8.8 0 0 0 .27 6.85l3.528 3.07a.79.79 0 0 1 .255.784l-1.06 4.305c-.16.678.577 1.236 1.194.877l3.904-2.272a.818.818 0 0 1 .818 0l3.904 2.272a.805.805 0 0 0 1.194-.877l-1.047-4.305a.79.79 0 0 1 .255-.784l3.528-3.07c.51-.465.215-1.329-.483-1.395z"/></svg><svg width="8" height="16" viewBox="0 0 8 16" id="slash" x="379" y="57" xmlns="http://www.w3.org/2000/svg"><path fill="#EB373B" fill-rule="evenodd" d="M4.135 0L7.98 1.103 3.845 15.522 0 14.419z"/></svg><svg width="17" height="16" viewBox="0 0 17 16" id="star" x="329" y="57" xmlns="http://www.w3.org/2000/svg"><path fill="#fff" d="M16.26 5.455l-4.681-.439a.809.809 0 0 1-.67-.491L9.23.498c-.268-.664-1.22-.664-1.489 0L6.08 4.525a.792.792 0 0 1-.671.491l-4.682.439A.8.8 0 0 0 .27 6.85l3.528 3.07a.79.79 0 0 1 .255.784l-1.06 4.305c-.16.678.577 1.236 1.194.877l3.904-2.272a.818.818 0 0 1 .818 0l3.904 2.272a.805.805 0 0 0 1.194-.877l-1.047-4.305a.79.79 0 0 1 .255-.784l3.528-3.07c.51-.465.215-1.329-.483-1.395z" stroke="#eb373b" stroke-width=".4"/></svg><svg width="17" height="16" viewBox="0 0 17 16" id="star-active" x="346" y="57" xmlns="http://www.w3.org/2000/svg"><path fill="#EB373B" d="M16.26 5.455l-4.681-.439a.809.809 0 0 1-.67-.491L9.23.498c-.268-.664-1.22-.664-1.489 0L6.08 4.525a.792.792 0 0 1-.671.491l-4.682.439A.8.8 0 0 0 .27 6.85l3.528 3.07a.79.79 0 0 1 .255.784l-1.06 4.305c-.16.678.577 1.236 1.194.877l3.904-2.272a.818.818 0 0 1 .818 0l3.904 2.272a.805.805 0 0 0 1.194-.877l-1.047-4.305a.79.79 0 0 1 .255-.784l3.528-3.07c.51-.465.215-1.329-.483-1.395z"/></svg><svg width="24" height="24" viewBox="0 0 24 24" id="sun" x="160" y="81" xmlns="http://www.w3.org/2000/svg"><path d="M12 6c-3.308 0-6 2.692-6 6s2.692 6 6 6 6-2.691 6-6-2.692-6-6-6zm-.22-1.855a1.151 1.151 0 0 1-1.15-1.151V1.15a1.151 1.151 0 1 1 2.302 0v1.843c0 .635-.516 1.15-1.151 1.15zm0 15.272a1.15 1.15 0 0 0-1.15 1.151v1.842a1.152 1.152 0 1 0 2.302 0v-1.842c0-.636-.516-1.151-1.151-1.151zm5.4-13.036a1.152 1.152 0 0 1 0-1.628l1.303-1.303a1.152 1.152 0 0 1 1.627 1.63l-1.302 1.3a1.15 1.15 0 0 1-1.628 0zM6.381 17.18a1.15 1.15 0 0 0-1.628 0L3.45 18.484a1.152 1.152 0 0 0 1.629 1.628l1.302-1.303a1.15 1.15 0 0 0 0-1.627zm13.036-5.4c0-.635.515-1.15 1.151-1.15h1.842a1.151 1.151 0 1 1 0 2.302h-1.842a1.151 1.151 0 0 1-1.151-1.151zm-15.272 0c0-.635-.516-1.15-1.152-1.15H1.151a1.151 1.151 0 1 0 0 2.302h1.843a1.15 1.15 0 0 0 1.15-1.151zm13.035 5.4a1.154 1.154 0 0 1 1.628 0l1.303 1.304a1.15 1.15 0 1 1-1.628 1.627L17.18 18.81a1.15 1.15 0 0 1 0-1.628zM6.381 6.381a1.15 1.15 0 0 0 0-1.628L5.08 3.451a1.151 1.151 0 0 0-1.63 1.628L4.753 6.38c.45.45 1.179.45 1.628 0z" fill="#EB373B"/></svg><svg width="463" height="33" viewBox="0 0 463 33" id="tire-logo" xmlns="http://www.w3.org/2000/svg"><defs><path id="qa" d="M0 0v24.23h95.217V0z"/></defs><g fill="none" fill-rule="evenodd"><path fill="#EB373B" d="M457.438 12.063s6.127-4.281 4.469-9.131c-1.668-4.049-19.141-1.449-32.145 1.158-7.787 1.596-13.307 2.996-17.049 4.93-5.195 2.689-6.297 5.078-5.22 6.154 1.078 1.074 4.609.149 13.672.606 9.076.453 22.289 1.978 22.289 5.509-.143 2.157-22.274 11.7-63.922 9.124-2.151.771-3.532 1.23-3.532 1.23s28.583 3.516 58.557-2.504c7.988-1.242 16.283-5.086 17.358-8.621 1.076-3.535-3.389-9.066-21.067-9.512 4-1.236 12.141-2.468 16.906-2.168"/><g transform="translate(0 3.832)"><mask id="qb" fill="#fff"><use xlink:href="#qa"/></mask><path fill="#FFF" d="M66.555.023L95.217 0 77.602 24.171l-32.625.026-6.07-14.885-.307.002-10.854 14.895L0 24.23 17.61.062 50.701.037l4.797 14.746.303-.002z" mask="url(#qb)"/></g><path d="M101.139 4.055L173.104 4l-4.143 5.688-20.74.013-13.471 18.483-30.488.025 13.467-18.482L97 9.742zm110.734 6.877h.309l-5.387 7.379-16.457.012 21.535-7.391zm-45.168 7.406L163 23.416l40.1-.031-3.008 4.133 27.75-.024 3.011-4.132 9.602-.008 3.699-5.072-9.597.005L244.963 4l-34.156.028-44.102 14.31zm146.484 9.599L240 27.992c3.109-3.21 8.509-6.229 21.334-8.778l21.378-4.25c2.309-.437 8.071-1.658 10.139-2.605 1.33-.578 1.777-1.188 2.369-2.004.953-1.313.311-2.094-4.881-2.09-5.791.002-7.283 1.428-7.97 2.377l-1.09 1.486-28.664.022c2.101-2.875 5.865-4.91 12.472-6.236 6.604-1.32 16.012-1.905 29.131-1.914 32.321-.026 33.561 3.49 31.323 6.572-2.469 3.386-8.778 5.355-17.59 6.984-8.805 1.631-17.949 3.094-27.196 5.338l36.135-.035-3.701 5.078zm54.309-11.724c-1.859 2.551-4 4.982-4.922 5.564-.9.557-2.556.94-5.674.942-3.113.002-4.2-.38-4.3-.934-.075-.582 1.326-3.01 3.183-5.56 1.856-2.545 4.002-4.98 4.932-5.563.894-.553 2.545-.943 5.66-.945 3.12-.002 4.211.385 4.3.94.077.577-1.318 3.015-3.179 5.556m-43.514.035c-4.068 5.588-4.174 8.02.905 9.85 4.986 1.715 13.972 2.353 27.845 2.344 13.88-.014 23.793-.665 31.303-2.393 7.742-1.836 11.197-4.272 15.264-9.859 4.078-5.582 4.177-8.018-.895-9.844C393.41 4.627 384.424 3.988 370.547 4c-13.87.01-23.793.66-31.303 2.391-7.738 1.836-11.189 4.275-15.26 9.857" fill="#FFF"/></g></svg><svg width="28" height="16" viewBox="0 0 28 16" id="truck" x="260" y="57" xmlns="http://www.w3.org/2000/svg"><g fill="#EB373B"><path d="M10.375 11.233c-1.293 0-2.337 1.068-2.337 2.386 0 1.313 1.044 2.381 2.337 2.381 1.292 0 2.337-1.068 2.337-2.381 0-1.318-1.045-2.386-2.337-2.386zm0 3.576a1.181 1.181 0 0 1-1.169-1.19c0-.659.523-1.191 1.169-1.191s1.168.532 1.168 1.19a1.18 1.18 0 0 1-1.168 1.191zM28 9.471v2.543c0 .635-.505 1.149-1.127 1.149h-1.206c-.218-1.524-1.507-2.695-3.062-2.695-1.552 0-2.84 1.171-3.058 2.695h-6.113c-.218-1.524-1.507-2.695-3.058-2.695-1.552 0-2.84 1.171-3.059 2.695h-1.51a1.138 1.138 0 0 1-1.127-1.149V9.471H28zm-5.392 1.762c-1.293 0-2.34 1.068-2.34 2.386 0 1.313 1.047 2.381 2.34 2.381 1.288 0 2.337-1.068 2.337-2.381 0-1.318-1.049-2.386-2.337-2.386zm0 3.576a1.181 1.181 0 0 1-1.169-1.19 1.18 1.18 0 0 1 1.169-1.191 1.18 1.18 0 0 1 1.168 1.19c0 .655-.526 1.191-1.168 1.191zm4.948-7.898l-4.43-4.464a1.491 1.491 0 0 0-1.055-.445h-2.236V1.15c0-.637-.503-1.15-1.127-1.15H5.806C5.186 0 4.68.513 4.68 1.149v.18l-4.574.537L8.21 2.94 0 3.772l8.181 1.186L0 5.68l4.68.9v2.257H28v-.839c0-.41-.162-.8-.444-1.087zm-1.931.149h-4.287a.178.178 0 0 1-.177-.18V3.507c0-.1.08-.18.177-.18h.815c.045 0 .09.02.124.05l3.468 3.373c.116.11.038.31-.12.31z"/><path d="M10.375 11.233c-1.293 0-2.337 1.068-2.337 2.386 0 1.313 1.044 2.381 2.337 2.381 1.292 0 2.337-1.068 2.337-2.381 0-1.318-1.045-2.386-2.337-2.386zm0 3.576a1.181 1.181 0 0 1-1.169-1.19c0-.659.523-1.191 1.169-1.191s1.168.532 1.168 1.19a1.18 1.18 0 0 1-1.168 1.191zM28 9.471v2.543c0 .635-.505 1.149-1.127 1.149h-1.206c-.218-1.524-1.507-2.695-3.062-2.695-1.552 0-2.84 1.171-3.058 2.695h-6.113c-.218-1.524-1.507-2.695-3.058-2.695-1.552 0-2.84 1.171-3.059 2.695h-1.51a1.138 1.138 0 0 1-1.127-1.149V9.471H28zm-5.392 1.762c-1.293 0-2.34 1.068-2.34 2.386 0 1.313 1.047 2.381 2.34 2.381 1.288 0 2.337-1.068 2.337-2.381 0-1.318-1.049-2.386-2.337-2.386zm0 3.576a1.181 1.181 0 0 1-1.169-1.19 1.18 1.18 0 0 1 1.169-1.191 1.18 1.18 0 0 1 1.168 1.19c0 .655-.526 1.191-1.168 1.191zm4.948-7.898l-4.43-4.464a1.491 1.491 0 0 0-1.055-.445h-2.236V1.15c0-.637-.503-1.15-1.127-1.15H5.806C5.186 0 4.68.513 4.68 1.149v.18l-4.574.537L8.21 2.94 0 3.772l8.181 1.186L0 5.68l4.68.9v2.257H28v-.839c0-.41-.162-.8-.444-1.087zm-1.931.149h-4.287a.178.178 0 0 1-.177-.18V3.507c0-.1.08-.18.177-.18h.815c.045 0 .09.02.124.05l3.468 3.373c.116.11.038.31-.12.31z"/></g></svg><svg width="16" height="16" viewBox="0 0 16 16" id="wheel" x="363" y="57" xmlns="http://www.w3.org/2000/svg"><path fill="#EB373B" d="M8 0C3.579 0 0 3.578 0 8c0 4.421 3.578 8 8 8 4.421 0 8-3.578 8-8 0-4.421-3.578-8-8-8zM3.625 8c0-.63.134-1.228.374-1.769l2.306 1.332a1.748 1.748 0 0 0 0 .874L4 9.77A4.35 4.35 0 0 1 3.625 8zm3.906 4.35a4.376 4.376 0 0 1-3.062-1.77l2.306-1.332c.208.205.467.357.756.438v2.664zm0-6.036a1.75 1.75 0 0 0-.756.438L4.47 5.42a4.376 4.376 0 0 1 3.062-1.77v2.664zM8.47 3.65a4.376 4.376 0 0 1 3.062 1.77L9.225 6.752a1.75 1.75 0 0 0-.756-.438V3.65zm0 8.7V9.686a1.75 1.75 0 0 0 .756-.438l2.306 1.332a4.376 4.376 0 0 1-3.062 1.77zM12 9.769L9.695 8.437a1.747 1.747 0 0 0 0-.874L12 6.23c.24.541.374 1.14.374 1.769A4.35 4.35 0 0 1 12 9.768z"/></svg></svg>