<?xml version="1.0" encoding="UTF-8" standalone="no"?>
<svg
   xmlns:dc="http://purl.org/dc/elements/1.1/"
   xmlns:cc="http://creativecommons.org/ns#"
   xmlns:rdf="http://www.w3.org/1999/02/22-rdf-syntax-ns#"
   xmlns:svg="http://www.w3.org/2000/svg"
   xmlns="http://www.w3.org/2000/svg"
   xmlns:sodipodi="http://sodipodi.sourceforge.net/DTD/sodipodi-0.dtd"
   xmlns:inkscape="http://www.inkscape.org/namespaces/inkscape"
   width="17"
   height="16"
   viewBox="0 0 17 16"
   version="1.1"
   id="svg4541"
   sodipodi:docname="star.svg"
   inkscape:version="0.92.1 r15371">
  <metadata
     id="metadata4547">
    <rdf:RDF>
      <cc:Work
         rdf:about="">
        <dc:format>image/svg+xml</dc:format>
        <dc:type
           rdf:resource="http://purl.org/dc/dcmitype/StillImage" />
        <dc:title></dc:title>
      </cc:Work>
    </rdf:RDF>
  </metadata>
  <defs
     id="defs4545" />
  <sodipodi:namedview
     pagecolor="#ffffff"
     bordercolor="#666666"
     borderopacity="1"
     objecttolerance="10"
     gridtolerance="10"
     guidetolerance="10"
     inkscape:pageopacity="0"
     inkscape:pageshadow="2"
     inkscape:window-width="1127"
     inkscape:window-height="480"
     id="namedview4543"
     showgrid="false"
     inkscape:zoom="14.75"
     inkscape:cx="8.5"
     inkscape:cy="8"
     inkscape:window-x="0"
     inkscape:window-y="0"
     inkscape:window-maximized="0"
     inkscape:current-layer="svg4541" />
  <path
     fill="#EB373B"
     fill-rule="nonzero"
     d="M16.26 5.455l-4.681-.439a.809.809 0 0 1-.67-.491L9.23.498c-.268-.664-1.22-.664-1.489 0L6.08 4.525a.792.792 0 0 1-.671.491l-4.682.439A.8.8 0 0 0 .27 6.85l3.528 3.07a.79.79 0 0 1 .255.784l-1.06 4.305c-.16.678.577 1.236 1.194.877l3.904-2.272a.818.818 0 0 1 .818 0l3.904 2.272a.805.805 0 0 0 1.194-.877l-1.047-4.305a.79.79 0 0 1 .255-.784l3.528-3.07c.51-.465.215-1.329-.483-1.395z"
     id="path4539"
     style="stroke:#eb373b;stroke-opacity:1;fill:#ffffff;fill-opacity:1;stroke-width:0.4;stroke-miterlimit:4;stroke-dasharray:none" />
</svg>
